<?xml version="1.0" encoding="utf-8"?>
<!-- Generator: Adobe Illustrator 26.2.1, SVG Export Plug-In . SVG Version: 6.00 Build 0)  -->
<svg version="1.1" id="Layer_1" xmlns="http://www.w3.org/2000/svg" xmlns:xlink="http://www.w3.org/1999/xlink" x="0px" y="0px"
	 viewBox="0 0 322.1 333.3" style="enable-background:new 0 0 322.1 333.3;" xml:space="preserve">
<style type="text/css">
	
		.st0{clip-path:url(#SVGID_00000019664044976488000790000017725163255210866856_);fill-rule:evenodd;clip-rule:evenodd;fill:#B88F2E;}
	
		.st1{clip-path:url(#SVGID_00000019664044976488000790000017725163255210866856_);fill-rule:evenodd;clip-rule:evenodd;fill:#FFFFFF;}
	
		.st2{clip-path:url(#SVGID_00000019664044976488000790000017725163255210866856_);fill-rule:evenodd;clip-rule:evenodd;fill:#7D1716;}
	.st3{clip-path:url(#SVGID_00000019664044976488000790000017725163255210866856_);fill:#FFFFFF;}
	.st4{clip-path:url(#SVGID_00000019664044976488000790000017725163255210866856_);fill:#D2985F;}
	.st5{clip-path:url(#SVGID_00000019664044976488000790000017725163255210866856_);fill:#7D1716;}
	
		.st6{clip-path:url(#SVGID_00000019664044976488000790000017725163255210866856_);fill-rule:evenodd;clip-rule:evenodd;fill:#1D0E16;}
	
		.st7{clip-path:url(#SVGID_00000019664044976488000790000017725163255210866856_);fill:none;stroke:#7D1716;stroke-width:0.606;stroke-miterlimit:22.926;}
	
		.st8{clip-path:url(#SVGID_00000019664044976488000790000017725163255210866856_);fill:none;stroke:#FFFFFF;stroke-width:0.262;stroke-miterlimit:2.613;}
</style>
<g>
	<defs>
		<rect id="SVGID_1_" x="-259.9" y="-131" width="841.9" height="595.3"/>
	</defs>
	<clipPath id="SVGID_00000116956993002613829940000000927637532822778798_">
		<use xlink:href="#SVGID_1_"  style="overflow:visible;"/>
	</clipPath>
	
		<path style="clip-path:url(#SVGID_00000116956993002613829940000000927637532822778798_);fill-rule:evenodd;clip-rule:evenodd;fill:#B88F2E;" d="
		M284.4,38.1C283.6,23.3,274.3,14,261.7,7C266.9,19.8,273.9,30.7,284.4,38.1"/>
	
		<path style="clip-path:url(#SVGID_00000116956993002613829940000000927637532822778798_);fill-rule:evenodd;clip-rule:evenodd;fill:#FFFFFF;" d="
		M282.2,34.3c-1.2-4.8-8.8-15-12.2-17.6C272.2,20.2,279.2,30.7,282.2,34.3"/>
	
		<path style="clip-path:url(#SVGID_00000116956993002613829940000000927637532822778798_);fill-rule:evenodd;clip-rule:evenodd;fill:#B88F2E;" d="
		M37.7,38.1C38.5,23.3,47.8,14,60.4,7C55.2,19.8,48.2,30.7,37.7,38.1"/>
	
		<path style="clip-path:url(#SVGID_00000116956993002613829940000000927637532822778798_);fill-rule:evenodd;clip-rule:evenodd;fill:#FFFFFF;" d="
		M39.9,34.3c1.2-4.8,8.8-15,12.2-17.6C49.9,20.2,42.9,30.7,39.9,34.3"/>
	
		<path style="clip-path:url(#SVGID_00000116956993002613829940000000927637532822778798_);fill-rule:evenodd;clip-rule:evenodd;fill:#B88F2E;" d="
		M294.6,55.7c8.1-7.3,1.8-26.9-6.3-37.9C286.1,32.4,288.6,44.4,294.6,55.7"/>
	
		<path style="clip-path:url(#SVGID_00000116956993002613829940000000927637532822778798_);fill-rule:evenodd;clip-rule:evenodd;fill:#FFFFFF;" d="
		M294.4,52.1c1.1-4.8-1.2-19.1-3-23C291.8,33.3,293.3,47.6,294.4,52.1"/>
	
		<path style="clip-path:url(#SVGID_00000116956993002613829940000000927637532822778798_);fill-rule:evenodd;clip-rule:evenodd;fill:#B88F2E;" d="
		M301.7,84.5c9.8-5.9,8.2-26.5,2.4-39.1C297.3,58.4,299.6,71.9,301.7,84.5"/>
	
		<path style="clip-path:url(#SVGID_00000116956993002613829940000000927637532822778798_);fill-rule:evenodd;clip-rule:evenodd;fill:#FFFFFF;" d="
		M303,80.6c1.9-4.5,2.5-18.9,1.4-23.1C304,61.6,302.7,76,303,80.6"/>
	
		<path style="clip-path:url(#SVGID_00000116956993002613829940000000927637532822778798_);fill-rule:evenodd;clip-rule:evenodd;fill:#B88F2E;" d="
		M302.8,114.6c10.9-3.1,13.9-24.6,11-38.1C304.3,87.6,303.6,101.8,302.8,114.6"/>
	
		<path style="clip-path:url(#SVGID_00000116956993002613829940000000927637532822778798_);fill-rule:evenodd;clip-rule:evenodd;fill:#FFFFFF;" d="
		M304.3,110.5c3.1-4,7.3-18.1,7.3-22.5C310.2,92,305.3,105.9,304.3,110.5"/>
	
		<path style="clip-path:url(#SVGID_00000116956993002613829940000000927637532822778798_);fill-rule:evenodd;clip-rule:evenodd;fill:#B88F2E;" d="
		M297.5,144.6c11.3,0.5,18.6-20.2,19.5-34.7C304.4,117.5,299.1,135.6,297.5,144.6"/>
	
		<path style="clip-path:url(#SVGID_00000116956993002613829940000000927637532822778798_);fill-rule:evenodd;clip-rule:evenodd;fill:#FFFFFF;" d="
		M300.3,141.1c3-3.1,11.3-15.1,11.5-20.4C309.5,124.6,301.3,136.5,300.3,141.1"/>
	
		<path style="clip-path:url(#SVGID_00000116956993002613829940000000927637532822778798_);fill-rule:evenodd;clip-rule:evenodd;fill:#B88F2E;" d="
		M290.1,57.5c0.3-10.7-13.3-23-24.3-23.2C272,45.6,280.5,55.1,290.1,57.5"/>
	
		<path style="clip-path:url(#SVGID_00000116956993002613829940000000927637532822778798_);fill-rule:evenodd;clip-rule:evenodd;fill:#FFFFFF;" d="
		M288.4,54.8c-2-3.9-11.5-12.7-15-14.4C276,43.1,285.1,52.3,288.4,54.8"/>
	
		<path style="clip-path:url(#SVGID_00000116956993002613829940000000927637532822778798_);fill-rule:evenodd;clip-rule:evenodd;fill:#B88F2E;" d="
		M297.1,85.3c2.9-10.3-8.3-25.3-19-28.1C281.4,69.5,287.9,82,297.1,85.3"/>
	
		<path style="clip-path:url(#SVGID_00000116956993002613829940000000927637532822778798_);fill-rule:evenodd;clip-rule:evenodd;fill:#FFFFFF;" d="
		M295.6,81.7c-1.2-4.2-9-14.6-12.2-16.9C285.5,67.9,292.8,78.6,295.6,81.7"/>
	
		<path style="clip-path:url(#SVGID_00000116956993002613829940000000927637532822778798_);fill-rule:evenodd;clip-rule:evenodd;fill:#B88F2E;" d="
		M297.7,114c5-9.5-2.7-26.5-12.5-31.5C285.7,95.2,289.4,108.8,297.7,114"/>
	
		<path style="clip-path:url(#SVGID_00000116956993002613829940000000927637532822778798_);fill-rule:evenodd;clip-rule:evenodd;fill:#FFFFFF;" d="
		M297,110.2c-0.3-4.4-5.7-16.2-8.2-19.1C290.1,94.5,294.9,106.5,297,110.2"/>
	
		<path style="clip-path:url(#SVGID_00000116956993002613829940000000927637532822778798_);fill-rule:evenodd;clip-rule:evenodd;fill:#B88F2E;" d="
		M292.7,142.3c6.6-8.4,2.1-26.5-6.6-33.3C284.2,121.7,285.4,135.7,292.7,142.3"/>
	
		<path style="clip-path:url(#SVGID_00000116956993002613829940000000927637532822778798_);fill-rule:evenodd;clip-rule:evenodd;fill:#FFFFFF;" d="
		M292.6,138.3c0.5-4.4-2.7-16.9-4.7-20.3C288.6,121.8,291.2,134.4,292.6,138.3"/>
	
		<path style="clip-path:url(#SVGID_00000116956993002613829940000000927637532822778798_);fill-rule:evenodd;clip-rule:evenodd;fill:#7D1716;" d="
		M294,63.8l0.4,0.1c19.6,31.7-3.5,122.1-28.8,138.8l-1.6-1.7C287,190.8,314,100.6,294,63.8"/>
	
		<path style="clip-path:url(#SVGID_00000116956993002613829940000000927637532822778798_);fill-rule:evenodd;clip-rule:evenodd;fill:#B88F2E;" d="
		M285.7,177.7c11.1,2.4,21.7-16.8,25-30.9C297,152.1,288.8,169.1,285.7,177.7"/>
	
		<path style="clip-path:url(#SVGID_00000116956993002613829940000000927637532822778798_);fill-rule:evenodd;clip-rule:evenodd;fill:#FFFFFF;" d="
		M289.1,174.7c3.4-2.6,13.7-13.1,14.8-18.3C300.9,160,290.8,170.3,289.1,174.7"/>
	
		<path style="clip-path:url(#SVGID_00000116956993002613829940000000927637532822778798_);fill-rule:evenodd;clip-rule:evenodd;fill:#B88F2E;" d="
		M281.3,174.6c7.9-7.2,6.4-25.8-1-33.9C276.4,152.9,275.2,166.9,281.3,174.6"/>
	
		<path style="clip-path:url(#SVGID_00000116956993002613829940000000927637532822778798_);fill-rule:evenodd;clip-rule:evenodd;fill:#FFFFFF;" d="
		M281.9,170.7c1.2-4.2,0.1-17.2-1.3-20.8C280.7,153.7,281.2,166.6,281.9,170.7"/>
	
		<path style="clip-path:url(#SVGID_00000116956993002613829940000000927637532822778798_);fill-rule:evenodd;clip-rule:evenodd;fill:#B88F2E;" d="
		M267.2,201.3c10,5.3,25.5-10.3,32.4-23C285,179.7,272.5,193.8,267.2,201.3"/>
	
		<path style="clip-path:url(#SVGID_00000116956993002613829940000000927637532822778798_);fill-rule:evenodd;clip-rule:evenodd;fill:#FFFFFF;" d="
		M271.2,199.3c4-1.6,16.7-8.9,19.2-13.6C286.6,188.3,274.1,195.5,271.2,199.3"/>
	
		<path style="clip-path:url(#SVGID_00000116956993002613829940000000927637532822778798_);fill-rule:evenodd;clip-rule:evenodd;fill:#B88F2E;" d="
		M263.8,197.1c9.6-4.8,13.2-23.1,8.2-32.9C264.9,174.8,260,188,263.8,197.1"/>
	
		<path style="clip-path:url(#SVGID_00000116956993002613829940000000927637532822778798_);fill-rule:evenodd;clip-rule:evenodd;fill:#FFFFFF;" d="
		M265.4,193.5c2.3-3.7,4.8-16.5,4.4-20.3C268.9,176.8,265.8,189.3,265.4,193.5"/>
	
		<path style="clip-path:url(#SVGID_00000116956993002613829940000000927637532822778798_);fill-rule:evenodd;clip-rule:evenodd;fill:#B88F2E;" d="
		M27.5,55.7c-8.1-7.3-1.8-26.9,6.3-37.9C36,32.4,33.5,44.4,27.5,55.7"/>
	
		<path style="clip-path:url(#SVGID_00000116956993002613829940000000927637532822778798_);fill-rule:evenodd;clip-rule:evenodd;fill:#FFFFFF;" d="
		M27.7,52.1c-1.1-4.8,1.2-19.1,3-23C30.3,33.3,28.8,47.6,27.7,52.1"/>
	
		<path style="clip-path:url(#SVGID_00000116956993002613829940000000927637532822778798_);fill-rule:evenodd;clip-rule:evenodd;fill:#B88F2E;" d="
		M20.4,84.5C10.6,78.6,12.2,58,18,45.4C24.8,58.4,22.5,71.9,20.4,84.5"/>
	
		<path style="clip-path:url(#SVGID_00000116956993002613829940000000927637532822778798_);fill-rule:evenodd;clip-rule:evenodd;fill:#FFFFFF;" d="
		M19.2,80.6c-1.9-4.5-2.5-18.9-1.4-23.1C18.1,61.6,19.4,76,19.2,80.6"/>
	
		<path style="clip-path:url(#SVGID_00000116956993002613829940000000927637532822778798_);fill-rule:evenodd;clip-rule:evenodd;fill:#B88F2E;" d="
		M19.3,114.6C8.4,111.5,5.5,90,8.3,76.5C17.9,87.6,18.6,101.8,19.3,114.6"/>
	
		<path style="clip-path:url(#SVGID_00000116956993002613829940000000927637532822778798_);fill-rule:evenodd;clip-rule:evenodd;fill:#FFFFFF;" d="
		M17.8,110.5c-3.1-4-7.3-18.1-7.3-22.5C11.9,92,16.8,105.9,17.8,110.5"/>
	
		<path style="clip-path:url(#SVGID_00000116956993002613829940000000927637532822778798_);fill-rule:evenodd;clip-rule:evenodd;fill:#B88F2E;" d="
		M24.6,144.6C13.2,145.2,6,124.4,5.1,110C17.7,117.5,23,135.6,24.6,144.6"/>
	
		<path style="clip-path:url(#SVGID_00000116956993002613829940000000927637532822778798_);fill-rule:evenodd;clip-rule:evenodd;fill:#FFFFFF;" d="
		M21.8,141.1c-3-3.1-11.3-15.1-11.5-20.4C12.6,124.6,20.8,136.5,21.8,141.1"/>
	
		<path style="clip-path:url(#SVGID_00000116956993002613829940000000927637532822778798_);fill-rule:evenodd;clip-rule:evenodd;fill:#B88F2E;" d="
		M32,57.5c-0.3-10.7,13.3-23,24.3-23.2C50.2,45.6,41.6,55.1,32,57.5"/>
	
		<path style="clip-path:url(#SVGID_00000116956993002613829940000000927637532822778798_);fill-rule:evenodd;clip-rule:evenodd;fill:#FFFFFF;" d="
		M33.7,54.8c2-3.9,11.5-12.7,15-14.4C46.1,43.1,37,52.3,33.7,54.8"/>
	
		<path style="clip-path:url(#SVGID_00000116956993002613829940000000927637532822778798_);fill-rule:evenodd;clip-rule:evenodd;fill:#B88F2E;" d="
		M25,85.3C22.1,75,33.3,60,43.9,57.1C40.7,69.5,34.2,82,25,85.3"/>
	
		<path style="clip-path:url(#SVGID_00000116956993002613829940000000927637532822778798_);fill-rule:evenodd;clip-rule:evenodd;fill:#FFFFFF;" d="
		M26.5,81.7c1.2-4.2,9-14.6,12.2-16.9C36.6,67.9,29.3,78.6,26.5,81.7"/>
	
		<path style="clip-path:url(#SVGID_00000116956993002613829940000000927637532822778798_);fill-rule:evenodd;clip-rule:evenodd;fill:#B88F2E;" d="
		M24.4,114c-5-9.5,2.7-26.5,12.5-31.5C36.4,95.2,32.7,108.8,24.4,114"/>
	
		<path style="clip-path:url(#SVGID_00000116956993002613829940000000927637532822778798_);fill-rule:evenodd;clip-rule:evenodd;fill:#FFFFFF;" d="
		M25.2,110.2c0.3-4.4,5.7-16.2,8.2-19.1C32,94.5,27.2,106.5,25.2,110.2"/>
	
		<path style="clip-path:url(#SVGID_00000116956993002613829940000000927637532822778798_);fill-rule:evenodd;clip-rule:evenodd;fill:#B88F2E;" d="
		M29.5,142.3c-6.6-8.4-2.1-26.5,6.6-33.3C37.9,121.7,36.7,135.7,29.5,142.3"/>
	
		<path style="clip-path:url(#SVGID_00000116956993002613829940000000927637532822778798_);fill-rule:evenodd;clip-rule:evenodd;fill:#FFFFFF;" d="
		M29.5,138.3c-0.5-4.4,2.7-16.9,4.7-20.3C33.5,121.8,30.9,134.4,29.5,138.3"/>
	
		<path style="clip-path:url(#SVGID_00000116956993002613829940000000927637532822778798_);fill-rule:evenodd;clip-rule:evenodd;fill:#7D1716;" d="
		M28.1,63.8L27.8,64C8.2,95.6,31.3,186,56.6,202.7l1.6-1.7C35.1,190.8,8.2,100.6,28.1,63.8"/>
	
		<path style="clip-path:url(#SVGID_00000116956993002613829940000000927637532822778798_);fill-rule:evenodd;clip-rule:evenodd;fill:#B88F2E;" d="
		M36.4,177.7c-11.1,2.4-21.7-16.8-25-30.9C25.1,152.1,33.3,169.1,36.4,177.7"/>
	
		<path style="clip-path:url(#SVGID_00000116956993002613829940000000927637532822778798_);fill-rule:evenodd;clip-rule:evenodd;fill:#FFFFFF;" d="
		M33.1,174.7c-3.4-2.6-13.7-13.1-14.8-18.3C21.3,160,31.3,170.3,33.1,174.7"/>
	
		<path style="clip-path:url(#SVGID_00000116956993002613829940000000927637532822778798_);fill-rule:evenodd;clip-rule:evenodd;fill:#B88F2E;" d="
		M40.8,174.6c-7.9-7.2-6.4-25.8,1-33.9C45.7,152.9,46.9,166.9,40.8,174.6"/>
	
		<path style="clip-path:url(#SVGID_00000116956993002613829940000000927637532822778798_);fill-rule:evenodd;clip-rule:evenodd;fill:#FFFFFF;" d="
		M40.2,170.7c-1.2-4.2-0.1-17.2,1.3-20.8C41.4,153.7,40.9,166.6,40.2,170.7"/>
	
		<path style="clip-path:url(#SVGID_00000116956993002613829940000000927637532822778798_);fill-rule:evenodd;clip-rule:evenodd;fill:#B88F2E;" d="
		M54.9,201.3c-10,5.3-25.5-10.3-32.4-23C37.1,179.7,49.6,193.8,54.9,201.3"/>
	
		<path style="clip-path:url(#SVGID_00000116956993002613829940000000927637532822778798_);fill-rule:evenodd;clip-rule:evenodd;fill:#FFFFFF;" d="
		M50.9,199.3c-4-1.6-16.7-8.9-19.2-13.6C35.6,188.3,48,195.5,50.9,199.3"/>
	
		<path style="clip-path:url(#SVGID_00000116956993002613829940000000927637532822778798_);fill-rule:evenodd;clip-rule:evenodd;fill:#B88F2E;" d="
		M58.4,197.1c-9.6-4.8-13.2-23.1-8.2-32.9C57.2,174.8,62.1,188,58.4,197.1"/>
	
		<path style="clip-path:url(#SVGID_00000116956993002613829940000000927637532822778798_);fill-rule:evenodd;clip-rule:evenodd;fill:#FFFFFF;" d="
		M56.7,193.5c-2.3-3.7-4.8-16.5-4.4-20.3C53.2,176.8,56.3,189.3,56.7,193.5"/>
	
		<path style="clip-path:url(#SVGID_00000116956993002613829940000000927637532822778798_);fill-rule:evenodd;clip-rule:evenodd;fill:#B88F2E;" d="
		M104.3,79.4c0.4,11-0.8,23.4-4.8,36c-13.1,41-7.4,38.2,0,47.6c7.4,9.4,16.3,21.3,16.3,21.3l1,0.1l44.7-49l44.7,49l1-0.1
		c0,0,9-11.9,16.3-21.3c7.4-9.4,13.1-6.6,0-47.6c-4-12.7-5.2-25-4.8-36l-57.2,54.4L104.3,79.4z"/>
	
		<polygon style="clip-path:url(#SVGID_00000116956993002613829940000000927637532822778798_);fill-rule:evenodd;clip-rule:evenodd;fill:#FFFFFF;" points="
		116.8,184.4 161.5,187.3 206.2,184.4 161.5,135.4 	"/>
	
		<path style="clip-path:url(#SVGID_00000116956993002613829940000000927637532822778798_);fill-rule:evenodd;clip-rule:evenodd;fill:#7D1716;" d="
		M161.5,14.6c0,0-25.1,19.5-56.1,21.9c11.1,13.5,36.3,43.3,56.1,60.1c19.8-16.8,45-46.6,56.1-60.1C186.6,34,161.5,14.6,161.5,14.6"
		/>
	
		<path style="clip-path:url(#SVGID_00000116956993002613829940000000927637532822778798_);fill-rule:evenodd;clip-rule:evenodd;fill:#7D1716;" d="
		M217.6,36.4c3.4,0.3,6.8,0.3,10.3,0.1c0,0-8.3,18.1-9.2,42.8l-57.2,54.4l-57.2-54.4c-0.8-24.7-9.2-42.8-9.2-42.8
		c3.5,0.2,6.9,0.1,10.3-0.1c11.1,13.5,36.3,43.3,56.1,60.1C181.4,79.7,206.5,50,217.6,36.4"/>
	
		<path style="clip-path:url(#SVGID_00000116956993002613829940000000927637532822778798_);fill-rule:evenodd;clip-rule:evenodd;fill:#B88F2E;" d="
		M209,88.6l-11.1,2.1l21-13.8c0-0.9,0.1-1.7,0.2-2.6l-25.3,10l25.1-25.3l-30.7,19.8l18.5-29.1l0,0v-0.1l-25.2,24.8L192.9,42
		l-19.1,29.3l3.7-33.7l-11.9,32.2L161.5,36l-4.2,33.7l-11.9-32.2l3.7,33.7L130.2,42l11.5,32.3l-25.2-24.8v0.1l0,0l18.5,29.1
		l-30.7-19.8l25.1,25.3l-25.3-10c0.1,0.9,0.1,1.7,0.2,2.6l21,13.8l-11.1-2.1l2.3,2.2l12.7,12.1c2.3-12.8,15.9-22.7,32.4-22.7
		c16.5,0,30.1,9.9,32.4,22.7l12.7-12.1L209,88.6z"/>
	<path style="clip-path:url(#SVGID_00000116956993002613829940000000927637532822778798_);fill:#FFFFFF;" d="M157.9,117.8
		c1,0.3,1.9,0.4,2.6,0.4c1.9,0,3.4-0.8,4.6-2.3c1.2-1.5,1.8-3.5,1.8-6.1c0-2.6-0.6-4.6-1.8-6.1c-1.2-1.5-2.8-2.2-4.7-2.2
		c-0.7,0-1.5,0.1-2.5,0.4V117.8z M153.3,119.2v-0.5h0.6c0.7,0,1.2-0.3,1.5-0.8c0.2-0.3,0.3-1,0.3-2v-12.2c0-1.2-0.1-1.9-0.3-2.2
		c-0.3-0.4-0.8-0.6-1.4-0.6h-0.6v-0.5h6.7c2.5,0,4.3,0.3,5.6,1c1.3,0.6,2.3,1.7,3.1,3.2c0.8,1.5,1.2,3.2,1.2,5.2
		c0,2.6-0.7,4.8-2.1,6.6c-1.6,2-3.9,2.9-7.1,2.9H153.3z"/>
	<path style="clip-path:url(#SVGID_00000116956993002613829940000000927637532822778798_);fill:#FFFFFF;" d="M127.4,135.6h7.6v-5.4
		c0-1-0.1-1.6-0.2-1.9c-0.1-0.2-0.3-0.4-0.5-0.6c-0.3-0.2-0.7-0.3-1.1-0.3h-0.6v-0.5h7.1v0.5h-0.6c-0.4,0-0.8,0.1-1.1,0.3
		c-0.3,0.1-0.4,0.4-0.5,0.7c-0.1,0.3-0.1,0.9-0.1,1.8v12.2c0,1,0.1,1.6,0.2,1.9c0.1,0.2,0.2,0.4,0.5,0.6c0.4,0.2,0.7,0.3,1.1,0.3
		h0.6v0.5h-7.1v-0.5h0.6c0.7,0,1.2-0.2,1.5-0.7c0.2-0.3,0.3-1,0.3-2.1v-5.8h-7.6v5.8c0,1,0.1,1.6,0.2,1.9c0.1,0.2,0.2,0.4,0.5,0.6
		c0.3,0.2,0.7,0.3,1.1,0.3h0.6v0.5h-7.1v-0.5h0.6c0.7,0,1.2-0.2,1.5-0.7c0.2-0.3,0.3-1,0.3-2.1v-12.2c0-1-0.1-1.6-0.2-1.9
		c-0.1-0.2-0.2-0.4-0.5-0.6c-0.4-0.2-0.7-0.3-1.1-0.3h-0.6v-0.5h7.1v0.5h-0.6c-0.4,0-0.8,0.1-1.1,0.3c-0.3,0.1-0.4,0.4-0.5,0.7
		c-0.1,0.3-0.1,0.9-0.1,1.8V135.6z"/>
	<path style="clip-path:url(#SVGID_00000116956993002613829940000000927637532822778798_);fill:#FFFFFF;" d="M193.7,126.1v6.7h-0.5
		c-0.1-1.3-0.4-2.3-0.8-3.1c-0.4-0.8-0.9-1.4-1.7-1.8c-0.7-0.4-1.4-0.7-2.2-0.7c-0.9,0-1.6,0.3-2.1,0.9c-0.6,0.6-0.8,1.3-0.8,2.1
		c0,0.6,0.2,1.1,0.5,1.6c0.5,0.7,1.7,1.7,3.7,2.8c1.6,1,2.7,1.7,3.2,2.2c0.6,0.5,1,1.1,1.3,1.8c0.3,0.7,0.5,1.4,0.5,2.2
		c0,1.5-0.5,2.7-1.5,3.8c-1,1.1-2.3,1.6-3.8,1.6c-0.5,0-0.9,0-1.4-0.1c-0.3,0-0.8-0.2-1.6-0.5c-0.8-0.3-1.3-0.5-1.5-0.5
		c-0.2,0-0.4,0.1-0.5,0.2c-0.1,0.1-0.2,0.4-0.3,0.9h-0.5v-6.6h0.5c0.2,1.4,0.5,2.4,0.9,3.1c0.4,0.7,0.9,1.3,1.7,1.7
		c0.7,0.5,1.6,0.7,2.5,0.7c1,0,1.9-0.3,2.5-0.9c0.6-0.6,0.9-1.4,0.9-2.2c0-0.5-0.1-1-0.3-1.4c-0.2-0.5-0.6-0.9-1.1-1.4
		c-0.3-0.3-1.2-0.9-2.7-1.8c-1.4-0.9-2.5-1.7-3.1-2.2s-1.1-1.2-1.4-1.8c-0.3-0.7-0.5-1.4-0.5-2.2c0-1.4,0.5-2.6,1.4-3.6
		s2.1-1.5,3.5-1.5c0.9,0,1.8,0.3,2.8,0.8c0.5,0.2,0.8,0.4,1,0.4c0.2,0,0.4-0.1,0.5-0.2c0.1-0.1,0.2-0.4,0.3-0.9H193.7z"/>
	
		<path style="clip-path:url(#SVGID_00000116956993002613829940000000927637532822778798_);fill-rule:evenodd;clip-rule:evenodd;fill:#FFFFFF;" d="
		M72.1,187.2c0.9-1.1,2.2-1.8,4-1.7c4.6,0.1,10.5,6,10.9,5.8l-5.4,14.2c18.3,14.2,60.4,18,80,18.6c19.6-0.6,61.7-4.4,80-18.6
		l-6.6-13.1c4.5-0.8,6.4-6.8,12.2-6.9c1.7,0,3.1,0.6,4,1.7l0.1-0.4l19.4,25.6l-1,1.7c-4.6,8-16,16.1-23.2,20.2
		c-25,14.2-56.7,18.6-84.7,19c-28-0.4-59.7-4.8-84.7-19c-7.2-4.1-18.6-12.2-23.2-20.2l-1-1.7L72,186.8L72.1,187.2z"/>
	
		<path style="clip-path:url(#SVGID_00000116956993002613829940000000927637532822778798_);fill-rule:evenodd;clip-rule:evenodd;fill:#FFFFFF;" d="
		M63.1,179.9c-4.5,0.3-9.8-0.5-12.9-4.5c-1.3-1.7-2.2-4.4-2.1-6.7l0-0.4l0.1-0.4c2.3-6.6,10.5-7,15.7-6l0.2,0l0.2,0.1
		c8,2.9,15.8,7.7,21.1,15.4c1.8,2.6,3.9,6.7,4.6,10.1l0.5,2.7l10.3,6.6l-4.8,17.8l-14.6-8.4l3.8-14.9l-2.9,0.7l-0.9-1.2
		c-1.6-2.1-4.2-3.5-6.7-3.2L60.4,205l-9.6-14.3L63.1,179.9z"/>
	
		<path style="clip-path:url(#SVGID_00000116956993002613829940000000927637532822778798_);fill-rule:evenodd;clip-rule:evenodd;fill:#B88F2E;" d="
		M60.5,200.5l12.7-15.7c0,0,5.5-1.5,9.7,3.9l4.4-0.9c0,0-2.9-15.7-23.8-23.2c0,0-10.7-2.1-13,4.3c0,0-0.7,9.6,13.8,8.1l2.9,0.6
		l0.2,1.9L54.1,191L60.5,200.5z"/>
	
		<path style="clip-path:url(#SVGID_00000116956993002613829940000000927637532822778798_);fill-rule:evenodd;clip-rule:evenodd;fill:#FFFFFF;" d="
		M260,179.8c4.5,0.3,9.8-0.5,12.8-4.5c1.3-1.7,2.2-4.3,2.1-6.6l0-0.4l-0.1-0.4c-2.3-6.5-10.4-7-15.6-6l-0.2,0l-0.2,0.1
		c-8,2.8-15.7,7.7-20.9,15.3c-1.8,2.6-3.9,6.7-4.5,10l-0.5,2.8l-10.5-1.2l1.3,15.5l5.6,9.7l3.2-2.6l9.7-4.1l-1.1-15.5l0.9-1.2
		c1.6-2.1,4.2-3.5,6.7-3.2l14.1,17.4l9.6-14.3L260,179.8z"/>
	
		<path style="clip-path:url(#SVGID_00000116956993002613829940000000927637532822778798_);fill-rule:evenodd;clip-rule:evenodd;fill:#B88F2E;" d="
		M262.6,200.5l-12.7-15.7c0,0-5.5-1.5-9.7,3.9l-4.4-0.9c0,0,2.9-15.7,23.8-23.2c0,0,10.7-2.1,13,4.3c0,0,0.6,9.6-13.8,8.1l-2.9,0.6
		l-0.2,1.9L269,191L262.6,200.5z"/>
	
		<path style="clip-path:url(#SVGID_00000116956993002613829940000000927637532822778798_);fill-rule:evenodd;clip-rule:evenodd;fill:#7D1716;" d="
		M161.5,226.8c20.1-0.7,86.3-5.2,91-33.9l15,19.7c0,0-21.2,36.6-105.9,38c-84.7-1.4-105.9-38-105.9-38l15-19.7
		C75.2,221.6,141.4,226.1,161.5,226.8"/>
	
		<path style="clip-path:url(#SVGID_00000116956993002613829940000000927637532822778798_);fill-rule:evenodd;clip-rule:evenodd;fill:#7D1716;" d="
		M243.2,203.3c0,0,4.8-4.4,6.5-10.4c0,0,1.2-4.7-2.6-4.6c-3.9,0.1-8.5,5.7-8.5,5.7L243.2,203.3z"/>
	
		<path style="clip-path:url(#SVGID_00000116956993002613829940000000927637532822778798_);fill-rule:evenodd;clip-rule:evenodd;fill:#7D1716;" d="
		M79.9,203.3c0,0-4.8-4.4-6.5-10.4c0,0-1.2-4.7,2.6-4.6c3.9,0.1,8.5,5.7,8.5,5.7L79.9,203.3z"/>
	
		<path style="clip-path:url(#SVGID_00000116956993002613829940000000927637532822778798_);fill-rule:evenodd;clip-rule:evenodd;fill:#FFFFFF;" d="
		M161.5,166.5c6.6-7.8,26.3-7.9,34.6-7.3l1.3,0.1l2.4,6.6l5.2-0.5l1.9,4.8l5.3,0.4l0.5,1.3l13.4,37.9c0.3,0.6,0.5,1.2,0.6,1.8
		c0.1,1.5-0.9,2.7-2.2,2.9l-0.1,0l-57.7,0.3c-1.1,1.4-2.9,1.7-4.5,1.6l-0.7,0.4l-0.7-0.4c-1.6,0.1-3.4-0.2-4.5-1.6l-57.7-0.3l-0.1,0
		c-1.1-0.2-2.1-1.1-2.2-2.5c0-0.2,0-0.3,0-0.5l0.1-2.4l14.4-38.5l5.3-0.4l1.9-4.8l5.2,0.5l2.4-6.6l1.3-0.1
		C135.2,158.5,154.9,158.7,161.5,166.5"/>
	
		<path style="clip-path:url(#SVGID_00000116956993002613829940000000927637532822778798_);fill-rule:evenodd;clip-rule:evenodd;fill:#7D1716;" d="
		M161.5,214.8c-1.3,0.2-3.7,0.3-4.6-1.5l-58.3-0.3c0,0-1.1-0.2-1.1-1.2v0c0-0.1,0-0.2,0-0.3l0.1-2.2l13.8-37l0.2-0.5l0.5,0l6.9-0.6
		l0.6,0.2l38.9,34.2l-0.4,0.8c1,0.4,2.1,0.9,3.4,1.5c1.3-0.7,2.4-1.2,3.4-1.5l-0.4-0.8l38.9-34.2l0.6-0.2l6.9,0.6l0.5,0l0.2,0.5
		l13.5,38c0.3,0.5,0.4,1,0.5,1.3l0,0l0,0c0.1,1.2-1.1,1.4-1.1,1.4l-58.3,0.3C165.2,215.2,162.8,215.1,161.5,214.8"/>
	<path style="clip-path:url(#SVGID_00000116956993002613829940000000927637532822778798_);fill:#D2985F;" d="M112.8,173.6l-13,35
		l3-0.4l0.1,0l49.2-0.4c-0.4-1.5-0.4-3.5,2.5-3.4l-35.7-31.4L112.8,173.6z M210.2,173.6l13,35l-3-0.4l-0.1,0l-49.2-0.4
		c0.4-1.5,0.4-3.5-2.5-3.4l35.7-31.4L210.2,173.6z"/>
	<path style="clip-path:url(#SVGID_00000116956993002613829940000000927637532822778798_);fill:#7D1716;" d="M203.7,166.8l-13.9,1.4
		v0l-28.2,1.6l-28.2-1.6v0l-13.9-1.4l-0.6-0.1l-0.2,0.6l-14.5,36.9l-0.6,1.6l1.5-0.3c0.1,0,36.1-7.5,50.2,5.9l0.2,0.1l5.8,3.3
		l0.4,0.2l0.4-0.2l5.8-3.3l0.2-0.1c14.2-13.4,50.1-6,50.2-5.9l1.5,0.3l-0.6-1.6l-14.5-36.9l-0.2-0.6L203.7,166.8z"/>
	<path style="clip-path:url(#SVGID_00000116956993002613829940000000927637532822778798_);fill:#D2985F;" d="M133.2,170.1l-13.4-1.4
		l-13.6,34.7c7.1-1.3,36.9-5.7,50,6.6l4.5,2.6v-40.9L133.2,170.1L133.2,170.1z M189.9,170.1l13.4-1.4l13.6,34.7
		c-7.1-1.3-36.9-5.7-50,6.6l-4.5,2.6v-40.9L189.9,170.1L189.9,170.1z"/>
	<path style="clip-path:url(#SVGID_00000116956993002613829940000000927637532822778798_);fill:#7D1716;" d="M161,210.1
		c-2.8-2.8-10.8-9.5-22.4-12c-7-1.5-15.4-1.5-24.9,1.8l-1.7,0.6l0.7-1.9l13.6-37.6l0.2-0.5l0.5,0c0.1,0,28.6-2.1,34.6,8.1
		c6-10.2,34.5-8.1,34.6-8.1l0.5,0l0.2,0.5l13.6,37.6l0.7,1.9l-1.7-0.6c-9.5-3.3-17.9-3.4-24.9-1.8c-11.7,2.5-19.6,9.3-22.4,12
		l-0.5,0.5L161,210.1z"/>
	<path style="clip-path:url(#SVGID_00000116956993002613829940000000927637532822778798_);fill:#FFFFFF;" d="M138.9,196.2
		c10.5,2.3,18.1,7.9,21.8,11.2v-36.5c-3.1-9.9-29.1-8.8-33.1-8.5l-12.7,35.2C123.9,194.7,132,194.8,138.9,196.2 M184.2,196.2
		c-10.5,2.3-18.1,7.9-21.8,11.2v-36.5c3.1-9.9,29.1-8.8,33.1-8.5l12.7,35.2C199.1,194.7,191,194.8,184.2,196.2"/>
	<path style="clip-path:url(#SVGID_00000116956993002613829940000000927637532822778798_);fill:#FFFFFF;" d="M198,227.7l-1,1.6
		l-1.4-1.2l1-1.6L198,227.7z M195.8,232.1l-2.5,0.4l0.7,1.4c0.2,0.4,0.3,0.7,0.3,0.9c0,0.2-0.1,0.3-0.2,0.5c-0.2,0.2-0.5,0.4-1,0.6
		c-0.5,0.2-0.7,0.5-0.6,0.8c0,0.3,0.1,0.5,0.3,0.6c0.2,0.1,0.5,0.2,0.9,0.1c0.3,0,0.7-0.3,1.3-0.7c0.6-0.4,1-0.8,1.3-1.2
		L195.8,232.1z M196.4,237.7c-0.2,0.2-0.6,0.5-1,0.7c-0.4,0.3-0.7,0.4-1,0.4c-0.7,0.1-1.4-0.2-2.1-0.9c-0.7-0.7-1.2-1.6-1.6-2.8
		c0.1,0,0.2-0.1,0.3-0.1c0.1-0.1,0.3-0.2,0.5-0.3c0.3-0.2,0.6-0.4,0.8-0.5c0.2-0.2,0.3-0.3,0.3-0.6c0-0.2-0.1-0.3-0.1-0.5
		c-0.1-0.2-0.2-0.4-0.3-0.6l-2.6,0.4l-1-1.5l9.2-1.3l1,1.5l-1.7,0.2l0.9,8.5l-1.7-1L196.4,237.7z M188.3,231.8
		c-0.2-0.7-0.4-1.4-0.6-1.8c-0.3-0.6-0.7-1-1-0.9l-0.3,0l-0.3,0.1l-0.6-1c-0.2-0.3-0.3-0.5-0.3-0.6c0-0.2,0.1-0.3,0.5-0.3
		c0.2,0,0.5,0,0.7,0.1c0.2,0.1,0.5,0.2,0.8,0.4c0.3,0.2,0.6,0.8,0.9,1.6c0.2,0.6,0.4,1.3,0.7,2.2c-0.1,0-0.2,0.1-0.3,0.1
		L188.3,231.8z M187.4,233.2l-2.5,0.3l0.6,1.5c0.2,0.4,0.3,0.7,0.3,0.9c0,0.2-0.1,0.3-0.2,0.5c-0.2,0.2-0.5,0.3-1,0.6
		c-0.5,0.2-0.7,0.4-0.6,0.8c0,0.3,0.1,0.5,0.3,0.6c0.2,0.1,0.5,0.2,0.9,0.1c0.3,0,0.7-0.2,1.3-0.6c0.6-0.4,1-0.7,1.3-1.1
		L187.4,233.2z M187.9,238.8c-0.2,0.2-0.6,0.5-1,0.7c-0.4,0.2-0.8,0.4-1,0.4c-0.7,0.1-1.4-0.2-2.1-0.9c-0.7-0.7-1.2-1.6-1.5-2.9
		c0.1,0,0.2-0.1,0.3-0.1c0.1-0.1,0.3-0.1,0.5-0.3c0.4-0.2,0.6-0.3,0.8-0.5c0.2-0.2,0.3-0.3,0.3-0.6c0-0.2-0.1-0.4-0.1-0.5
		c0-0.2-0.2-0.4-0.3-0.6l-2.6,0.3l-1-1.5l9.3-1.1l1,1.5l-1.7,0.2l0.8,8.6l-1.7-1L187.9,238.8z M178.8,235.2c0.2,0.1,0.4,0.1,0.6,0.1
		c0.3,0,0.5-0.1,0.7-0.3c0.2-0.2,0.2-0.4,0.2-0.7c0-0.2-0.1-0.4-0.3-0.6c-0.2-0.2-0.4-0.2-0.6-0.2c-0.2,0-0.4,0.1-0.6,0.3
		c-0.2,0.2-0.2,0.5-0.2,0.8C178.6,234.8,178.7,235,178.8,235.2 M183.5,239.3c-0.3,0.4-0.8,0.8-1.3,1.1c-0.5,0.3-1,0.5-1.4,0.5
		c-0.7,0.1-1.4-0.2-2-0.8c-0.6-0.6-1-1.2-1-1.8c0-0.2,0-0.4,0-0.6c0-0.2,0.1-0.3,0.2-0.5c0.2-0.3,0.6-0.5,1.1-0.8
		c-0.5-0.1-0.9-0.4-1.3-0.7c-0.4-0.4-0.6-0.8-0.6-1.3c0-0.5,0.1-1,0.4-1.4c0.3-0.4,0.8-0.6,1.3-0.7c0.4,0,0.9,0.1,1.3,0.4
		c0.4,0.3,0.6,0.7,0.7,1.3c0,0.4-0.1,0.8-0.4,1.1c-0.3,0.3-0.7,0.5-1.1,0.5l-0.2,0c0,0.1,0.1,0.2,0.3,0.3c0.2,0.1,0.5,0.1,0.7,0
		l0.3,0c0.2,0,0.3,0,0.4,0l0.9,1.6l-0.8,0c-0.8,0.1-1.4,0.2-1.8,0.6c-0.3,0.2-0.4,0.5-0.4,0.8c0,0.2,0.1,0.4,0.3,0.5
		c0.2,0.1,0.6,0.1,1.1,0.1c0.4,0,0.9-0.3,1.5-0.7c0.6-0.4,1.1-1,1.6-1.6L183.5,239.3z M173.7,230.3l-1.2,1.5l-1.3-1.4l1.2-1.5
		L173.7,230.3z M170.8,234.6l-2.7,0.1l0.1,3.6l2.7-0.1L170.8,234.6z M168.3,239.9l0,0.9c0,0.3-0.1,0.4-0.4,0.4c-0.2,0-0.6-0.3-1.2-1
		c-0.6-0.6-0.9-1.1-0.9-1.4c0-0.3,0.1-0.4,0.4-0.4l0.5,0l-0.1-3.6l-1.7,0l-0.9-1.6l9-0.3l0.9,1.6l-1.7,0l0.2,8.6l-1.6-1.2l0-2.2
		L168.3,239.9z M158.5,234.6l-0.8-1.6l6.8,0.2l0.8,1.6l-2.8-0.1l-0.1,3.4c0,0.3-0.1,0.7-0.3,1c-0.2,0.3-0.5,0.6-0.8,0.9
		c0.3,0.5,1,1.5,2.1,2.9l-0.6,0.7l-2.7-4c-0.6-0.9-0.9-1.4-0.9-1.7c0-0.1,0-0.2,0.1-0.4c0.1-0.1,0.2-0.2,0.4-0.2
		c0.2,0,0.3,0.1,0.5,0.1l0.6,0.4c0.1,0,0.2-0.1,0.2-0.3l0.1-2.6L158.5,234.6z M152.8,234.4l-0.2,4.2c0,0.4,0.1,0.6,0.5,0.6
		c0.2,0,0.5-0.1,1-0.4c0.4-0.3,0.8-0.6,1.2-1.1l0.1-3.2L152.8,234.4z M158.7,234.7l-1.8-0.1l-0.4,8.6l-1.5-1.3l0.2-2.1
		c-0.2,0.2-0.4,0.3-0.8,0.5c-0.3,0.1-0.6,0.2-0.8,0.2c-0.5,0-1-0.3-1.6-0.9c-0.7-0.6-1-1.3-0.9-1.9l0.1-3.5l-1.2-0.1l-0.8-1.6
		l8.6,0.5L158.7,234.7z M147.1,229.8l-1.3,1.3l-1.2-1.5l1.3-1.3L147.1,229.8z M143.7,237.1l-2-0.2c-0.2,0-0.3,0.1-0.3,0.3l-0.1,0.7
		c0,0.3-0.2,0.4-0.6,0.4c-0.2,0-0.5-0.4-0.9-1.1c-0.2-0.4-0.3-0.7-0.4-0.9c-0.1-0.3-0.1-0.5-0.1-0.7c0-0.1,0.1-0.2,0.2-0.3
		c0.1-0.1,0.2-0.1,0.3-0.1l4,0.5l0.2-1.8l-5.3-0.6l-0.7-1.7l8.4,1l0.7,1.7l-1.7-0.2l-0.7,8.6l-1.5-1.4L143.7,237.1z M136,241.5
		l-1.5-1.4l0.9-7.3l-1.2-0.2l-0.6-1.7l4.7,0.7l0.6,1.7l-2-0.3L136,241.5z M131.2,240.8l-1.4-1.5l1.1-7.3l-1.2-0.2l-0.6-1.7l4.7,0.8
		l0.6,1.7l-2-0.4L131.2,240.8z M130.1,231.8l-5.4-1l-0.6-1.7l5.4,1L130.1,231.8z M130.5,235.9l-2.9-0.5c0.9,1,1.3,1.8,1.2,2.6
		c-0.1,0.5-0.4,0.9-0.9,1.1c-0.4,0.2-0.9,0.3-1.5,0.3l1.1,2.4l-0.8,0.3l-0.4-1.1l-0.5-1.4c0-0.1-0.1-0.2-0.2-0.3l-0.3-0.2
		c-0.6-0.1-0.8-0.5-0.7-1.3c0.1-0.4,0.2-0.8,0.3-0.9c0.1-0.2,0.3-0.3,0.5-0.2c0.2,0,0.3,0.1,0.4,0.2c0.1,0.1,0.2,0.4,0.3,0.9
		c0.4,0.1,0.7,0.1,1,0c0.3-0.1,0.4-0.3,0.5-0.7c0.1-0.4-0.1-0.8-0.4-1.2c-0.4-0.5-1-1.1-1.8-1.7l0.2-0.7l5.2,0.9L130.5,235.9z"/>
	
		<path style="clip-path:url(#SVGID_00000116956993002613829940000000927637532822778798_);fill-rule:evenodd;clip-rule:evenodd;fill:#7D1716;" d="
		M99.1,199.9c-0.6-0.6-10.5-16.4-10.5-16.4l1.2,8.7l7.9,8.4L99.1,199.9z"/>
	
		<polygon style="clip-path:url(#SVGID_00000116956993002613829940000000927637532822778798_);fill-rule:evenodd;clip-rule:evenodd;fill:#7D1716;" points="
		88.6,195.4 96.7,201.5 95.7,204 86.9,197.1 	"/>
	
		<polygon style="clip-path:url(#SVGID_00000116956993002613829940000000927637532822778798_);fill-rule:evenodd;clip-rule:evenodd;fill:#1D0E16;" points="
		85.4,199 95.5,206.2 94.6,208.1 84.7,200.9 85,199.4 	"/>
	<polygon style="clip-path:url(#SVGID_00000116956993002613829940000000927637532822778798_);fill:#7D1716;" points="85.4,199 
		95.5,206.2 94.6,208.1 84.7,200.9 85,199.4 	"/>
	
		<polygon style="clip-path:url(#SVGID_00000116956993002613829940000000927637532822778798_);fill-rule:evenodd;clip-rule:evenodd;fill:#7D1716;" points="
		82.9,203.6 93.8,209.5 92.8,210.9 82.4,205.6 	"/>
	
		<path style="clip-path:url(#SVGID_00000116956993002613829940000000927637532822778798_);fill-rule:evenodd;clip-rule:evenodd;fill:#1D0E16;" d="
		M224.4,200c0.5-0.6,13.9-21.5,13.9-21.5l-2.8,7.5l-8.9,16L224.4,200z"/>
	<path style="clip-path:url(#SVGID_00000116956993002613829940000000927637532822778798_);fill:#7D1716;" d="M224.4,200
		c0.5-0.6,13.9-21.5,13.9-21.5l-2.8,7.5l-8.9,16L224.4,200z"/>
	
		<polygon style="clip-path:url(#SVGID_00000116956993002613829940000000927637532822778798_);fill-rule:evenodd;clip-rule:evenodd;fill:#7D1716;" points="
		238.8,191.7 228.1,204.2 227.6,203.9 237.5,188.9 	"/>
	
		<polygon style="clip-path:url(#SVGID_00000116956993002613829940000000927637532822778798_);fill-rule:evenodd;clip-rule:evenodd;fill:#7D1716;" points="
		237.8,196.2 228.4,205.9 228.8,206.6 239.3,199 	"/>
	
		<polygon style="clip-path:url(#SVGID_00000116956993002613829940000000927637532822778798_);fill-rule:evenodd;clip-rule:evenodd;fill:#7D1716;" points="
		241,200.1 229.1,207.8 230,210.2 242.4,203.7 	"/>
	
		<path style="clip-path:url(#SVGID_00000116956993002613829940000000927637532822778798_);fill-rule:evenodd;clip-rule:evenodd;fill:#FFFFFF;" d="
		M265.1,77.1l-20.6-23.7c-0.1-3,1.1-5.1,3.1-6.4c11.8,3.5,21.5,11.2,28.2,25.2c5.9,19.3-5.6,29.1-0.3,39.6c-1.6,2.8-4.1,4.4-7.2,5.3
		C261.8,107.5,262.3,93.1,265.1,77.1"/>
	
		<path style="clip-path:url(#SVGID_00000116956993002613829940000000927637532822778798_);fill:none;stroke:#7D1716;stroke-width:0.606;stroke-miterlimit:22.926;" d="
		M265.1,77.1l-20.6-23.7c-0.1-3,1.1-5.1,3.1-6.4c11.8,3.5,21.5,11.2,28.2,25.2c5.9,19.3-5.6,29.1-0.3,39.6c-1.6,2.8-4.1,4.4-7.2,5.3
		C261.8,107.5,262.3,93.1,265.1,77.1z"/>
	<path style="clip-path:url(#SVGID_00000116956993002613829940000000927637532822778798_);fill:#7D1716;" d="M273.8,111.2
		c0.2,1,1.1,1.7,2,1.4c0.9-0.2,1.5-1.3,1.2-2.3c0,0-1.7-8.9,1.3-16.5c0.3-0.8,0.6-1.7,0.9-2.6c1.3-4.8,2.1-12.3-0.6-20.3
		c-2.6-7.9-8.7-16.2-20.9-22.6c-2.7-1.4-5.6-2.7-8.8-3.8c-0.9-0.3-1.8,0.2-2.1,1.2c-0.3,1,0.1,2.8,0.9,3.1c3.1,1.1,5.8,2.2,8.2,3.5
		c10.1,6.8,16.1,12.9,18.4,20c2.3,7,1.7,13.4,0.6,17.6C272.6,98.8,271.8,101.2,273.8,111.2"/>
	
		<path style="clip-path:url(#SVGID_00000116956993002613829940000000927637532822778798_);fill:none;stroke:#FFFFFF;stroke-width:0.262;stroke-miterlimit:2.613;" d="
		M273.8,111.2c0.2,1,1.1,1.7,2,1.4c0.9-0.2,1.5-1.3,1.2-2.3c0,0-1.7-8.9,1.3-16.5c0.3-0.8,0.6-1.7,0.9-2.6
		c1.3-4.8,2.1-12.3-0.6-20.3c-2.6-7.9-8.7-16.2-20.9-22.6c-2.7-1.4-5.6-2.7-8.8-3.8c-0.9-0.3-1.8,0.2-2.1,1.2
		c-0.3,1,0.1,2.8,0.9,3.1c3.1,1.1,5.8,2.2,8.2,3.5c10.1,6.8,16.1,12.9,18.4,20c2.3,7,1.7,13.4,0.6,17.6
		C272.6,98.8,271.8,101.2,273.8,111.2z"/>
	
		<path style="clip-path:url(#SVGID_00000116956993002613829940000000927637532822778798_);fill-rule:evenodd;clip-rule:evenodd;fill:#FFFFFF;" d="
		M281.5,132c5.1-0.2,10.3,1.2,14.2,4.5c4.8,4,6.6,10,6.4,16.1c-0.2,5.3,1,10.5,3.9,14.9c1,1.5,2.7,3.6,4.2,4.7l2.3,1.6l-2.8,0.4
		c-5.5,0.7-11.4,0.6-16.5-1.8c-3.7-1.8-6.5-4.6-8.4-8.2c-1.6-3.1-2.4-6.5-2.8-9.9c-0.3-2.4-0.3-4.7-0.4-7.1c0-1-0.2-3-1.1-3.7
		c-0.1-0.1-0.2-0.1-0.2-0.1c-1.3,3.2-3.1,6.4-4.9,9.3c-0.9,1.5-1.9,3.1-3,4.6c0.3,3.8-0.2,7.9-2.3,11.2c-0.5,4.8,2.6,10.2,5.4,13.9
		c1.8,2.5,4.1,5.2,6.4,7.3l0.6,0.5l-2.9,6.5l-1.1-0.9c-8.6-7.2-13.8-16.1-16.6-26.8c-3.8-4-7-8.7-7.9-14.3c-0.2-1.7-0.2-3.3-0.3-5
		c0-1.3-0.1-2.6-0.6-3.7c-0.8-2-2.3-3-4.4-3.3c-0.8-0.1-1.9-0.2-2.8,0c-1.8,2.3-4.1,4.1-6.9,4.9c-1.1,0.3-2.6,0.5-3.8,0.3l-0.1,0
		l-0.1,0c-4-1.1-8.1-0.5-11.8,1.2c-1.6,0.7-3.6,1.9-5,3.1l-0.6,0.6l-5.9-3.7l0.9-1c2.7-3,6.1-5.1,9.8-6.4c1.6-0.6,3.6-1.1,5.2-1.2
		l7.8-0.8c0.9-3,2.5-6.2,5.2-7.9c0.9-0.5,2-0.9,3.1-1l0.4-0.6c-1.1-3-2.7-6.1-4.2-9c-0.9-1.6-1.8-3.2-2.8-4.8
		c-0.8-0.8-2.3-1.8-3.2-2.4c-1.8-1.2-3.7-2.3-5.5-3.4c-2.4-1.4-4.8-2.8-7.3-4.2c-2.3-0.3-5.1-0.4-7.6-0.2l0.2,11.2l-6.2,1.6
		l-0.9-14.3c-0.2-2,0.1-4.3,2-5.5c0.7-0.4,1.7-0.6,2.5-0.5c2.4-0.1,4.9,0.1,7.3,0.2c1.1,0.1,2.2,0.1,3.3,0.2l0.4-3.9
		c0.2-1.3,0.1-2.8-1.3-3.5c-0.5-0.2-1.3-0.4-1.9-0.3l-0.1,0l-11.7-1.9v-6.8l1.2,0.1c2.1,0.2,4.2,0.5,6.2,0.8
		c1.7,0.2,3.4,0.5,5.1,0.8c1.4,0.2,2.8,0.5,4.2,0.9c1.8,0.5,3.4,1.7,4.4,3.3c0.4,0.6,0.8,1.5,1,2.3l1.2,3.3c0.8,1.1,1.9,2.1,3.4,1.9
		c0.5-0.1,1.1-0.3,1.5-0.6l5.9-5c3.1-2.7,4-5.4,4.2-9.4c0-0.4,0.1-2-0.3-2.3c-0.1,0-0.5,0.1-0.6,0.2l-5.4,4.7
		c-1.4,1.2-3.1,1.9-5,1.4c-0.7-0.2-1.6-0.6-2.1-1.1l-2.6-2.2c-1.5-1.2-2.3-2.9-2-4.8c0.1-0.8,0.4-1.7,0.9-2.3l11-16.8
		c1.1-1.7,2.7-4.4,4.9-4.9c2.1-0.5,4.7,1,6.5,2c2,1.1,4,2.4,5.9,3.7c1.4,1,2.9,2.1,4.2,3.3c3.3,2.9,6,6.1,7.6,10.2
		c2.4,5.8,2,12,0.2,17.8c-2.3,7.5-2.9,15.7,0.6,22.9c1.1,2.3,3.3,5.5,5.5,7l0,0l0,0c1.1,0.9,2.1,2,3,3c1.4,1.7,3,4.1,2.8,6.3
		C280.6,130.2,280.6,131.8,281.5,132"/>
	
		<path style="clip-path:url(#SVGID_00000116956993002613829940000000927637532822778798_);fill-rule:evenodd;clip-rule:evenodd;fill:#7D1716;" d="
		M240.5,58.7l-11,16.8c0,0-2.2,3.1,0.9,5.6l2.6,2.2c0,0,2.6,2.4,5.7-0.3l5.5-4.8c0,0,3-2.2,2.7,3c-0.3,5.2-1.9,7.8-4.6,10.2l-5.9,5
		c0,0-3.4,2.9-6.6-1.6l-1.3-3.6c0,0-0.7-3.6-4.6-4.8c-3.9-1.1-15.3-2.4-15.3-2.4v4.6l10.7,1.7c0,0,5.1-0.5,4.4,5.1l-0.5,5
		c0,0-7.8-0.6-11.6-0.5c0,0-3.9-0.6-3.3,4.8l0.8,13l4.1-1.1l-0.2-11.3c0,0,4.1-0.6,9,0.1c0,0,14.3,8,16.5,10.4c0,0,5.2,8.2,7.4,14.6
		l-1.1,1.5c0,0-5.6-0.7-8,8.8l-8.5,0.9c0,0-8.4,0.7-14.3,7.3l4.1,2.6c0,0,8-7.2,17.8-4.5c0,0,5.5,0.9,9.9-5.1c0,0,6.7-1.5,8.9,3.9
		c2.1,5.2-2.4,11.1,8.7,22.9c2.5,10.1,7.4,19.1,16.3,26.5l2-4.4c0,0-13.3-12.4-12.1-22.5c1.2-1.9,2.7-5.5,2.2-11.2
		c0,0,5.7-7.9,8.2-14.7c0,0,3-0.8,3.2,4.9c0.2,5.7-1,29.6,26.7,25.9c0,0-9.1-6.4-8.6-20.6c0.5-14.1-10-19.9-19.6-19.4
		c0,0-2.2-0.3-1.8-3.8c0.4-3.5-5.4-8.4-5.4-8.4s-13.3-9.4-6.5-31.2c4.4-14.3-2.4-22.4-7.5-26.8c-1.7-1.5-6.1-4.8-9.9-6.9
		C244.8,53.2,244,53.3,240.5,58.7"/>
	
		<path style="clip-path:url(#SVGID_00000116956993002613829940000000927637532822778798_);fill-rule:evenodd;clip-rule:evenodd;fill:#FFFFFF;" d="
		M58.1,77.2l20.6-23.7c0.1-3-1.1-5.1-3.1-6.4C63.8,50.5,54,58.2,47.3,72.3c-5.9,19.3,5.6,29.1,0.3,39.6c1.6,2.8,4.1,4.4,7.2,5.3
		C61.4,107.6,60.9,93.2,58.1,77.2"/>
	
		<path style="clip-path:url(#SVGID_00000116956993002613829940000000927637532822778798_);fill:none;stroke:#7D1716;stroke-width:0.606;stroke-miterlimit:22.926;" d="
		M58.1,77.2l20.6-23.7c0.1-3-1.1-5.1-3.1-6.4C63.8,50.5,54,58.2,47.3,72.3c-5.9,19.3,5.6,29.1,0.3,39.6c1.6,2.8,4.1,4.4,7.2,5.3
		C61.4,107.6,60.9,93.2,58.1,77.2z"/>
	<path style="clip-path:url(#SVGID_00000116956993002613829940000000927637532822778798_);fill:#7D1716;" d="M49.5,111.3
		c-0.2,1-1.1,1.7-2,1.4c-0.9-0.2-1.5-1.3-1.2-2.3c0,0,1.7-8.9-1.3-16.5c-0.3-0.8-0.6-1.7-0.9-2.6C42.7,86.5,42,79,44.6,71
		c2.6-7.9,8.7-16.2,20.9-22.6c2.7-1.4,5.6-2.7,8.8-3.8c0.9-0.3,1.8,0.2,2.1,1.2c0.3,1-0.1,2.8-0.9,3.1c-3.1,1.1-5.8,2.2-8.2,3.5
		c-10.1,6.8-16.1,12.9-18.4,20c-2.3,7-1.7,13.4-0.6,17.6C50.6,98.8,51.4,101.3,49.5,111.3"/>
	
		<path style="clip-path:url(#SVGID_00000116956993002613829940000000927637532822778798_);fill:none;stroke:#FFFFFF;stroke-width:0.262;stroke-miterlimit:2.613;" d="
		M49.5,111.3c-0.2,1-1.1,1.7-2,1.4c-0.9-0.2-1.5-1.3-1.2-2.3c0,0,1.7-8.9-1.3-16.5c-0.3-0.8-0.6-1.7-0.9-2.6
		C42.7,86.5,42,79,44.6,71c2.6-7.9,8.7-16.2,20.9-22.6c2.7-1.4,5.6-2.7,8.8-3.8c0.9-0.3,1.8,0.2,2.1,1.2c0.3,1-0.1,2.8-0.9,3.1
		c-3.1,1.1-5.8,2.2-8.2,3.5c-10.1,6.8-16.1,12.9-18.4,20c-2.3,7-1.7,13.4-0.6,17.6C50.6,98.8,51.4,101.3,49.5,111.3z"/>
	
		<path style="clip-path:url(#SVGID_00000116956993002613829940000000927637532822778798_);fill-rule:evenodd;clip-rule:evenodd;fill:#FFFFFF;" d="
		M41.7,132.1c-5.1-0.2-10.3,1.2-14.2,4.5c-4.8,4-6.6,10-6.4,16.1c0.2,5.3-1,10.5-3.9,14.9c-1,1.5-2.7,3.6-4.2,4.7l-2.3,1.6l2.8,0.4
		c5.5,0.7,11.4,0.6,16.5-1.8c3.7-1.8,6.5-4.6,8.4-8.2c1.6-3.1,2.4-6.5,2.8-9.9c0.3-2.4,0.3-4.7,0.4-7.1c0-1,0.2-3,1.1-3.7
		c0.1-0.1,0.1-0.1,0.2-0.1c1.3,3.2,3.1,6.4,4.9,9.3c0.9,1.5,1.9,3.1,3,4.6c-0.3,3.8,0.2,7.9,2.3,11.2c0.5,4.8-2.6,10.2-5.4,13.9
		c-1.8,2.5-4.1,5.2-6.4,7.3l-0.6,0.5l2.9,6.5l1.1-0.9c8.6-7.2,13.8-16.1,16.6-26.8c3.8-4,7-8.7,7.9-14.3c0.2-1.7,0.2-3.3,0.3-5
		c0-1.3,0.1-2.6,0.6-3.7c0.8-2,2.3-3,4.4-3.3c0.8-0.1,1.9-0.2,2.8,0c1.8,2.3,4.1,4.1,6.9,4.9c1.1,0.3,2.6,0.5,3.8,0.3l0.1,0l0.1,0
		c4-1.1,8.1-0.5,11.8,1.2c1.6,0.7,3.6,1.9,5,3.1l0.6,0.6l5.9-3.7l-0.9-1c-2.7-3-6.1-5.1-9.8-6.4c-1.6-0.5-3.6-1.1-5.2-1.2l-7.8-0.8
		c-0.9-3-2.5-6.2-5.2-7.9c-0.9-0.5-2-0.9-3.1-1l-0.4-0.6c1.1-3,2.7-6.1,4.2-9c0.9-1.6,1.8-3.2,2.8-4.8c0.8-0.8,2.3-1.8,3.2-2.4
		c1.8-1.2,3.7-2.3,5.5-3.4c2.4-1.4,4.8-2.8,7.3-4.2c2.3-0.3,5.1-0.4,7.6-0.2l-0.2,11.2l6.2,1.6l0.9-14.3c0.2-2-0.1-4.3-2-5.5
		c-0.7-0.4-1.7-0.6-2.5-0.5c-2.4-0.1-4.9,0.1-7.3,0.2c-1.1,0.1-2.2,0.1-3.3,0.2l-0.4-3.9c-0.2-1.3-0.1-2.8,1.3-3.5
		c0.5-0.2,1.3-0.4,1.9-0.3l0.1,0l11.7-1.9v-6.8l-1.2,0.1c-2.1,0.2-4.2,0.5-6.2,0.8c-1.7,0.2-3.4,0.5-5.1,0.8
		c-1.4,0.2-2.8,0.5-4.2,0.9c-1.8,0.5-3.4,1.7-4.4,3.3c-0.4,0.6-0.8,1.5-1,2.3l-1.2,3.3c-0.8,1.1-1.9,2.1-3.4,1.9
		c-0.5-0.1-1.1-0.3-1.5-0.6l-5.9-5c-3.1-2.7-4-5.4-4.2-9.4c0-0.4-0.1-2,0.3-2.3c0.1,0,0.5,0.1,0.6,0.2l5.4,4.7
		c1.4,1.2,3.1,1.9,5,1.4c0.7-0.2,1.6-0.6,2.1-1.1l2.6-2.2c1.5-1.2,2.3-2.9,2-4.8c-0.1-0.8-0.4-1.7-0.9-2.3l-11-16.8
		c-1.1-1.7-2.7-4.4-4.9-4.9c-2.1-0.5-4.7,1-6.5,2c-2,1.1-4,2.4-5.9,3.7c-1.4,1-2.9,2.1-4.2,3.3c-3.3,2.9-6,6.1-7.6,10.2
		c-2.4,5.8-2,11.9-0.2,17.8c2.3,7.5,2.9,15.7-0.6,22.9c-1.1,2.3-3.3,5.5-5.5,7l0,0l0,0c-1.1,0.9-2.1,2-3,3c-1.4,1.7-3,4.1-2.8,6.3
		C42.6,130.3,42.6,131.9,41.7,132.1"/>
	
		<path style="clip-path:url(#SVGID_00000116956993002613829940000000927637532822778798_);fill-rule:evenodd;clip-rule:evenodd;fill:#7D1716;" d="
		M82.8,58.8l11,16.8c0,0,2.2,3.1-0.9,5.6l-2.6,2.2c0,0-2.6,2.4-5.7-0.3L79,78.4c0,0-3-2.2-2.7,3c0.3,5.2,1.9,7.8,4.6,10.2l5.9,5
		c0,0,3.4,2.9,6.6-1.6l1.3-3.6c0,0,0.7-3.6,4.6-4.8c3.9-1.1,15.3-2.4,15.3-2.4v4.6l-10.7,1.7c0,0-5.1-0.5-4.4,5.1l0.5,5
		c0,0,7.8-0.6,11.6-0.5c0,0,3.9-0.6,3.3,4.8l-0.8,13l-4.1-1.1l0.2-11.3c0,0-4.1-0.6-9,0.1c0,0-14.3,8-16.5,10.4
		c0,0-5.2,8.2-7.4,14.6l1.1,1.5c0,0,5.6-0.7,8,8.8l8.5,0.9c0,0,8.4,0.7,14.3,7.3l-4.1,2.6c0,0-8-7.2-17.8-4.5c0,0-5.5,0.9-9.9-5.1
		c0,0-6.7-1.5-8.9,3.9c-2.1,5.2,2.4,11.1-8.7,22.9c-2.5,10.1-7.4,19.1-16.3,26.5l-2-4.4c0,0,13.3-12.4,12.1-22.5
		c-1.2-1.9-2.7-5.5-2.2-11.2c0,0-5.7-7.9-8.2-14.7c0,0-3-0.8-3.2,4.9c-0.2,5.7,1,29.6-26.7,25.9c0,0,9.1-6.4,8.6-20.6
		c-0.5-14.1,10-19.9,19.6-19.4c0,0,2.2-0.3,1.8-3.8c-0.4-3.5,5.4-8.4,5.4-8.4s13.3-9.4,6.5-31.2c-4.4-14.3,2.4-22.4,7.5-26.8
		c1.7-1.5,6.1-4.8,9.9-6.8C78.4,53.3,79.2,53.4,82.8,58.8"/>
	
		<path style="clip-path:url(#SVGID_00000116956993002613829940000000927637532822778798_);fill-rule:evenodd;clip-rule:evenodd;fill:#7D1716;" d="
		M134.7,164.5c-2.1-0.1-4.2-0.2-6.3-0.2l0,3.1c2,0,4,0,6.1,0.2L134.7,164.5z M144.1,165.8c-2.1-0.4-4.1-0.7-6.3-1l-0.3,3.1
		c2,0.2,4,0.5,6,0.9L144.1,165.8z M153.2,168.5c-1.9-0.8-4-1.5-6-2l-0.8,3c0.6,0.2,1.1,0.3,1.7,0.5c1.3,0.4,2.7,0.9,4,1.4
		L153.2,168.5z M159.7,171.7c-1.2-0.7-2.3-1.3-3.5-1.9l-1.3,2.8c1.1,0.5,2.2,1.1,3.3,1.8L159.7,171.7z M126.6,187.3
		c-2.1-0.1-4.2-0.1-6.3-0.1l0,3.1c2,0,4.1,0,6.1,0.1L126.6,187.3z M135.9,188.3c-2.1-0.3-4.2-0.6-6.2-0.7l-0.2,3.1
		c2,0.2,4,0.4,6,0.7L135.9,188.3z M145.2,190.3c-2-0.6-4.1-1.1-6.1-1.5l-0.6,3c2,0.4,3.9,0.9,5.9,1.4L145.2,190.3z M154.1,193.6
		c-1.9-0.9-3.9-1.7-5.9-2.3l-1,2.9c1.9,0.7,3.8,1.4,5.6,2.2L154.1,193.6z M159.5,196.4c-0.8-0.5-1.7-1-2.5-1.4l-1.4,2.7
		c0.8,0.4,1.6,0.9,2.4,1.3L159.5,196.4z M130.1,179.2c-2.1-0.1-4.2-0.2-6.3-0.2l0,3.1c2,0,4,0,6.1,0.1L130.1,179.2z M139.5,180.4
		c-2.1-0.4-4.1-0.7-6.3-0.9l-0.3,3.1c2,0.2,4,0.5,6,0.8L139.5,180.4z M148.7,182.8c-2-0.7-4-1.3-6.1-1.8l-0.7,3c2,0.5,3.9,1,5.8,1.7
		L148.7,182.8z M157.4,186.8c-1.8-1.1-3.7-2-5.7-2.8l-1.2,2.8c1.8,0.8,3.6,1.7,5.4,2.7L157.4,186.8z M132.7,172.1
		c-2.1-0.1-4.2-0.2-6.3-0.2l0,3.1c2,0,4,0,6.1,0.2L132.7,172.1z M142.1,173.4c-2.1-0.4-4.1-0.7-6.3-1l-0.3,3.1c2,0.2,4,0.5,6,0.9
		L142.1,173.4z M151.2,176.1c-1.9-0.8-4-1.5-6-2l-0.8,3c0.6,0.2,1.1,0.3,1.7,0.5c1.3,0.4,2.7,0.9,4,1.4L151.2,176.1z M157.7,179.3
		c-1.2-0.7-2.3-1.3-3.5-1.9l-1.3,2.8c1.1,0.5,2.2,1.1,3.3,1.8L157.7,179.3z"/>
	
		<path style="clip-path:url(#SVGID_00000116956993002613829940000000927637532822778798_);fill-rule:evenodd;clip-rule:evenodd;fill:#7D1716;" d="
		M188.6,164.5c2.1-0.1,4.2-0.2,6.3-0.2l0,3.1c-2,0-4,0-6.1,0.2L188.6,164.5z M179.2,165.8c2.1-0.4,4.1-0.7,6.3-1l0.3,3.1
		c-2,0.2-4,0.5-6,0.9L179.2,165.8z M170.1,168.5c1.9-0.8,4-1.5,6-2l0.8,3c-0.6,0.2-1.1,0.3-1.7,0.5c-1.3,0.4-2.7,0.9-4,1.4
		L170.1,168.5z M163.6,171.7c1.2-0.7,2.3-1.3,3.5-1.9l1.3,2.8c-1.1,0.5-2.2,1.1-3.3,1.8L163.6,171.7z M196.8,187.3
		c2.1-0.1,4.2-0.1,6.3-0.1l0,3.1c-2,0-4.1,0-6.1,0.1L196.8,187.3z M187.4,188.3c2.1-0.3,4.2-0.6,6.2-0.7l0.2,3.1c-2,0.2-4,0.4-6,0.7
		L187.4,188.3z M178.1,190.3c2-0.6,4.1-1.1,6.1-1.5l0.6,3c-2,0.4-3.9,0.9-5.9,1.4L178.1,190.3z M169.2,193.6
		c1.9-0.9,3.9-1.7,5.9-2.3l1,2.9c-1.9,0.7-3.8,1.4-5.6,2.2L169.2,193.6z M163.9,196.4c0.8-0.5,1.7-1,2.5-1.4l1.4,2.7
		c-0.8,0.4-1.6,0.9-2.4,1.3L163.9,196.4z M193.2,179.2c2.1-0.1,4.2-0.2,6.3-0.2l0,3.1c-2,0-4,0-6.1,0.1L193.2,179.2z M183.8,180.4
		c2.1-0.4,4.1-0.7,6.3-0.9l0.3,3.1c-2,0.2-4,0.5-6,0.8L183.8,180.4z M174.6,182.8c2-0.7,4-1.3,6.1-1.8l0.7,3c-2,0.5-3.9,1-5.8,1.7
		L174.6,182.8z M165.9,186.8c1.8-1.1,3.7-2,5.7-2.8l1.2,2.8c-1.8,0.8-3.6,1.7-5.4,2.7L165.9,186.8z M190.6,172.1
		c2.1-0.1,4.2-0.2,6.3-0.2l0,3.1c-2,0-4,0-6.1,0.2L190.6,172.1z M181.2,173.4c2.1-0.4,4.1-0.7,6.3-1l0.3,3.1c-2,0.2-4,0.5-6,0.9
		L181.2,173.4z M172.1,176.1c1.9-0.8,4-1.5,6-2l0.8,3c-0.6,0.2-1.1,0.3-1.7,0.5c-1.3,0.4-2.7,0.9-4,1.4L172.1,176.1z M165.6,179.3
		c1.2-0.7,2.3-1.3,3.5-1.9l1.3,2.8c-1.1,0.5-2.2,1.1-3.3,1.8L165.6,179.3z"/>
	
		<path style="clip-path:url(#SVGID_00000116956993002613829940000000927637532822778798_);fill-rule:evenodd;clip-rule:evenodd;fill:#7D1716;" d="
		M89.6,289.1c2.5,0,4.4-0.7,5.8-2c1.4-1.4,2.1-3.3,2.1-5.8s-0.7-4.4-2.1-5.8c-1.4-1.4-3.3-2.1-5.8-2.1h-3.1v15.7H89.6z M90,267.8
		c2.8,0,5.3,0.6,7.5,1.7c2.1,1.1,3.8,2.7,4.9,4.8c1.2,2,1.8,4.4,1.8,7.1c0,2.6-0.6,5-1.8,7c-1.2,2.1-2.8,3.6-5,4.8
		c-2.1,1.1-4.6,1.7-7.4,1.7H79.9v-27H90z"/>
	
		<polygon style="clip-path:url(#SVGID_00000116956993002613829940000000927637532822778798_);fill-rule:evenodd;clip-rule:evenodd;fill:#7D1716;" points="
		131.3,267.8 131.3,294.8 124.7,294.8 124.7,283.7 114.4,283.7 114.4,294.8 107.9,294.8 107.9,267.8 114.4,267.8 114.4,278.4 
		124.7,278.4 124.7,267.8 	"/>
	
		<path style="clip-path:url(#SVGID_00000116956993002613829940000000927637532822778798_);fill-rule:evenodd;clip-rule:evenodd;fill:#7D1716;" d="
		M151.1,284.9l-3.3-9.9l-3.3,9.9H151.1z M152.8,290h-10.1l-1.6,4.8h-6.9l9.8-27h7.6l9.8,27h-7L152.8,290z"/>
	
		<path style="clip-path:url(#SVGID_00000116956993002613829940000000927637532822778798_);fill-rule:evenodd;clip-rule:evenodd;fill:#7D1716;" d="
		M170.9,279.9h4.1c1.2,0,2.1-0.3,2.7-0.9c0.6-0.6,0.9-1.4,0.9-2.5c0-1-0.3-1.8-0.9-2.4c-0.6-0.6-1.5-0.9-2.7-0.9h-4.1V279.9z
		 M178.1,294.8l-5.6-10.2h-1.6v10.2h-6.6v-27h11c2.1,0,3.9,0.4,5.4,1.1c1.5,0.7,2.6,1.8,3.4,3.1c0.7,1.3,1.1,2.7,1.1,4.3
		c0,1.8-0.5,3.4-1.5,4.8c-1,1.4-2.5,2.4-4.5,3l6.2,10.7H178.1z"/>
	
		<path style="clip-path:url(#SVGID_00000116956993002613829940000000927637532822778798_);fill-rule:evenodd;clip-rule:evenodd;fill:#7D1716;" d="
		M204.6,284.9l-3.3-9.9l-3.3,9.9H204.6z M206.3,290h-10.1l-1.6,4.8h-6.9l9.8-27h7.6l9.8,27h-7L206.3,290z"/>
	
		<polygon style="clip-path:url(#SVGID_00000116956993002613829940000000927637532822778798_);fill-rule:evenodd;clip-rule:evenodd;fill:#7D1716;" points="
		243.2,267.8 233.6,294.8 225.4,294.8 215.8,267.8 222.8,267.8 229.5,288.2 236.2,267.8 	"/>
	
		<path style="clip-path:url(#SVGID_00000116956993002613829940000000927637532822778798_);fill-rule:evenodd;clip-rule:evenodd;fill:#7D1716;" d="
		M89.6,289.1c2.5,0,4.4-0.7,5.8-2c1.4-1.4,2.1-3.3,2.1-5.8s-0.7-4.4-2.1-5.8c-1.4-1.4-3.3-2.1-5.8-2.1h-3.1v15.7H89.6z M90,267.8
		c2.8,0,5.3,0.6,7.5,1.7c2.1,1.1,3.8,2.7,4.9,4.8c1.2,2,1.8,4.4,1.8,7.1c0,2.6-0.6,5-1.8,7c-1.2,2.1-2.8,3.6-5,4.8
		c-2.1,1.1-4.6,1.7-7.4,1.7H79.9v-27H90z"/>
	
		<polygon style="clip-path:url(#SVGID_00000116956993002613829940000000927637532822778798_);fill-rule:evenodd;clip-rule:evenodd;fill:#7D1716;" points="
		131.3,267.8 131.3,294.8 124.7,294.8 124.7,283.7 114.4,283.7 114.4,294.8 107.9,294.8 107.9,267.8 114.4,267.8 114.4,278.4 
		124.7,278.4 124.7,267.8 	"/>
	
		<path style="clip-path:url(#SVGID_00000116956993002613829940000000927637532822778798_);fill-rule:evenodd;clip-rule:evenodd;fill:#7D1716;" d="
		M151.1,284.9l-3.3-9.9l-3.3,9.9H151.1z M152.8,290h-10.1l-1.6,4.8h-6.9l9.8-27h7.6l9.8,27h-7L152.8,290z"/>
	
		<path style="clip-path:url(#SVGID_00000116956993002613829940000000927637532822778798_);fill-rule:evenodd;clip-rule:evenodd;fill:#7D1716;" d="
		M170.9,279.9h4.1c1.2,0,2.1-0.3,2.7-0.9c0.6-0.6,0.9-1.4,0.9-2.5c0-1-0.3-1.8-0.9-2.4c-0.6-0.6-1.5-0.9-2.7-0.9h-4.1V279.9z
		 M178.1,294.8l-5.6-10.2h-1.6v10.2h-6.6v-27h11c2.1,0,3.9,0.4,5.4,1.1c1.5,0.7,2.6,1.8,3.4,3.1c0.7,1.3,1.1,2.7,1.1,4.3
		c0,1.8-0.5,3.4-1.5,4.8c-1,1.4-2.5,2.4-4.5,3l6.2,10.7H178.1z"/>
	
		<path style="clip-path:url(#SVGID_00000116956993002613829940000000927637532822778798_);fill-rule:evenodd;clip-rule:evenodd;fill:#7D1716;" d="
		M204.6,284.9l-3.3-9.9l-3.3,9.9H204.6z M206.3,290h-10.1l-1.6,4.8h-6.9l9.8-27h7.6l9.8,27h-7L206.3,290z"/>
	
		<polygon style="clip-path:url(#SVGID_00000116956993002613829940000000927637532822778798_);fill-rule:evenodd;clip-rule:evenodd;fill:#7D1716;" points="
		243.2,267.8 233.6,294.8 225.4,294.8 215.8,267.8 222.8,267.8 229.5,288.2 236.2,267.8 	"/>
	
		<polygon style="clip-path:url(#SVGID_00000116956993002613829940000000927637532822778798_);fill-rule:evenodd;clip-rule:evenodd;fill:#7D1716;" points="
		76.5,304.9 76.5,326 73,326 73,316.8 63.1,316.8 63.1,326 59.6,326 59.6,304.9 63.1,304.9 63.1,314 73,314 73,304.9 	"/>
	
		<rect x="81" y="304.9" style="clip-path:url(#SVGID_00000116956993002613829940000000927637532822778798_);fill-rule:evenodd;clip-rule:evenodd;fill:#7D1716;" width="3.5" height="21.1"/>
	
		<path style="clip-path:url(#SVGID_00000116956993002613829940000000927637532822778798_);fill-rule:evenodd;clip-rule:evenodd;fill:#7D1716;" d="
		M104.3,311c-0.5-1.1-1.3-1.9-2.3-2.4c-1-0.5-2.1-0.8-3.4-0.8c-1.4,0-2.6,0.3-3.7,0.9c-1.1,0.6-2,1.5-2.6,2.7
		c-0.6,1.2-0.9,2.5-0.9,4c0,1.5,0.3,2.9,0.9,4c0.6,1.2,1.5,2.1,2.6,2.7c1.1,0.6,2.3,0.9,3.7,0.9c1.9,0,3.4-0.5,4.6-1.6
		c1.2-1.1,1.9-2.5,2.2-4.3h-7.9v-2.8h11.6v2.7c-0.2,1.6-0.8,3.2-1.7,4.5c-0.9,1.4-2.2,2.5-3.7,3.3c-1.5,0.8-3.2,1.2-5,1.2
		c-2,0-3.8-0.5-5.4-1.4c-1.6-0.9-2.9-2.2-3.9-3.8c-1-1.6-1.4-3.5-1.4-5.6c0-2.1,0.5-3.9,1.4-5.6c1-1.6,2.3-2.9,3.9-3.8
		c1.7-0.9,3.5-1.4,5.4-1.4c2.2,0,4.3,0.6,6,1.7c1.8,1.1,3,2.7,3.8,4.7H104.3z"/>
	
		<polygon style="clip-path:url(#SVGID_00000116956993002613829940000000927637532822778798_);fill-rule:evenodd;clip-rule:evenodd;fill:#7D1716;" points="
		129.4,304.9 129.4,326 126,326 126,316.8 116,316.8 116,326 112.5,326 112.5,304.9 116,304.9 116,314 126,314 126,304.9 	"/>
	
		<path style="clip-path:url(#SVGID_00000116956993002613829940000000927637532822778798_);fill-rule:evenodd;clip-rule:evenodd;fill:#7D1716;" d="
		M145,325.5c-1.1-0.5-2-1.2-2.7-2.1c-0.6-0.9-1-2-1-3.2h3.7c0.1,0.9,0.4,1.7,1.1,2.3c0.6,0.6,1.5,0.9,2.7,0.9c1.2,0,2.1-0.3,2.8-0.9
		c0.7-0.6,1-1.3,1-2.2c0-0.7-0.2-1.3-0.6-1.7c-0.4-0.4-0.9-0.8-1.6-1c-0.6-0.2-1.5-0.5-2.6-0.8c-1.4-0.4-2.5-0.7-3.4-1.1
		c-0.9-0.4-1.6-1-2.2-1.7c-0.6-0.8-0.9-1.8-0.9-3.2c0-1.2,0.3-2.3,0.9-3.2c0.6-0.9,1.5-1.6,2.6-2.1c1.1-0.5,2.4-0.7,3.8-0.7
		c2,0,3.7,0.5,5,1.5c1.3,1,2,2.4,2.2,4.2h-3.8c-0.1-0.8-0.4-1.4-1.1-2c-0.7-0.5-1.6-0.8-2.6-0.8c-1,0-1.8,0.3-2.4,0.8
		c-0.6,0.5-0.9,1.2-0.9,2.2c0,0.6,0.2,1.2,0.6,1.6c0.4,0.4,0.9,0.7,1.5,1s1.4,0.5,2.5,0.8c1.4,0.4,2.5,0.8,3.4,1.2
		c0.9,0.4,1.6,1,2.2,1.8c0.6,0.8,0.9,1.9,0.9,3.2c0,1.1-0.3,2.1-0.9,3c-0.6,1-1.4,1.7-2.5,2.3c-1.1,0.6-2.4,0.9-3.9,0.9
		C147.4,326.3,146.2,326,145,325.5"/>
	
		<path style="clip-path:url(#SVGID_00000116956993002613829940000000927637532822778798_);fill-rule:evenodd;clip-rule:evenodd;fill:#7D1716;" d="
		M160.5,309.9c1-1.6,2.3-2.9,3.9-3.8c1.7-0.9,3.5-1.4,5.4-1.4c2.2,0,4.3,0.6,6,1.7c1.8,1.1,3,2.7,3.8,4.7h-4.2
		c-0.5-1.1-1.3-1.9-2.3-2.5c-1-0.5-2.1-0.8-3.4-0.8c-1.4,0-2.6,0.3-3.7,0.9c-1.1,0.6-2,1.5-2.6,2.7c-0.6,1.2-0.9,2.5-0.9,4.1
		c0,1.6,0.3,2.9,0.9,4.1c0.6,1.2,1.5,2.1,2.6,2.7c1.1,0.6,2.3,1,3.7,1c1.3,0,2.4-0.3,3.4-0.8c1-0.5,1.7-1.4,2.3-2.5h4.2
		c-0.8,2-2.1,3.6-3.8,4.7c-1.8,1.1-3.8,1.6-6,1.6c-2,0-3.8-0.5-5.4-1.4c-1.6-0.9-2.9-2.2-3.9-3.8c-1-1.6-1.4-3.5-1.4-5.6
		C159.1,313.4,159.6,311.5,160.5,309.9"/>
	
		<polygon style="clip-path:url(#SVGID_00000116956993002613829940000000927637532822778798_);fill-rule:evenodd;clip-rule:evenodd;fill:#7D1716;" points="
		200.6,304.9 200.6,326 197.2,326 197.2,316.8 187.2,316.8 187.2,326 183.8,326 183.8,304.9 187.2,304.9 187.2,314 197.2,314 
		197.2,304.9 	"/>
	
		<path style="clip-path:url(#SVGID_00000116956993002613829940000000927637532822778798_);fill-rule:evenodd;clip-rule:evenodd;fill:#7D1716;" d="
		M209.4,324.9c-1.7-0.9-3-2.2-3.9-3.9c-1-1.7-1.4-3.5-1.4-5.6c0-2.1,0.5-3.9,1.4-5.6c1-1.6,2.3-2.9,3.9-3.8c1.7-0.9,3.5-1.4,5.4-1.4
		c2,0,3.8,0.5,5.5,1.4c1.7,0.9,3,2.2,3.9,3.8c1,1.6,1.4,3.5,1.4,5.6c0,2.1-0.5,3.9-1.4,5.6c-1,1.7-2.3,2.9-3.9,3.9
		c-1.7,0.9-3.5,1.4-5.5,1.4C212.9,326.3,211,325.8,209.4,324.9 M218.6,322.3c1.1-0.6,2-1.6,2.6-2.7c0.6-1.2,0.9-2.6,0.9-4.1
		c0-1.6-0.3-2.9-0.9-4.1c-0.6-1.2-1.5-2.1-2.6-2.7c-1.1-0.6-2.3-0.9-3.7-0.9c-1.4,0-2.6,0.3-3.7,0.9c-1.1,0.6-2,1.5-2.6,2.7
		c-0.6,1.2-0.9,2.5-0.9,4.1c0,1.6,0.3,2.9,0.9,4.1c0.6,1.2,1.5,2.1,2.6,2.7c1.1,0.6,2.3,1,3.7,1
		C216.2,323.2,217.5,322.9,218.6,322.3"/>
	
		<path style="clip-path:url(#SVGID_00000116956993002613829940000000927637532822778798_);fill-rule:evenodd;clip-rule:evenodd;fill:#7D1716;" d="
		M233.2,324.9c-1.7-0.9-3-2.2-3.9-3.9c-1-1.7-1.4-3.5-1.4-5.6c0-2.1,0.5-3.9,1.4-5.6c1-1.6,2.3-2.9,3.9-3.8c1.7-0.9,3.5-1.4,5.4-1.4
		c2,0,3.8,0.5,5.5,1.4c1.7,0.9,3,2.2,3.9,3.8c1,1.6,1.4,3.5,1.4,5.6c0,2.1-0.5,3.9-1.4,5.6c-1,1.7-2.3,2.9-3.9,3.9
		c-1.7,0.9-3.5,1.4-5.5,1.4C236.7,326.3,234.9,325.8,233.2,324.9 M242.4,322.3c1.1-0.6,2-1.6,2.6-2.7c0.6-1.2,0.9-2.6,0.9-4.1
		c0-1.6-0.3-2.9-0.9-4.1c-0.6-1.2-1.5-2.1-2.6-2.7c-1.1-0.6-2.3-0.9-3.7-0.9c-1.4,0-2.6,0.3-3.7,0.9c-1.1,0.6-2,1.5-2.6,2.7
		c-0.6,1.2-0.9,2.5-0.9,4.1c0,1.6,0.3,2.9,0.9,4.1c0.6,1.2,1.5,2.1,2.6,2.7c1.1,0.6,2.3,1,3.7,1
		C240.1,323.2,241.3,322.9,242.4,322.3"/>
	
		<polygon style="clip-path:url(#SVGID_00000116956993002613829940000000927637532822778798_);fill-rule:evenodd;clip-rule:evenodd;fill:#7D1716;" points="
		256.3,323.2 263.5,323.2 263.5,326 252.9,326 252.9,304.9 256.3,304.9 	"/>
</g>
</svg>
